<svg xmlns="http://www.w3.org/2000/svg" width="1024" height="1024" aria-label="'8A;>20 >A">
  <defs>
    <linearGradient id="bg" x1="0" x2="0" y1="0" y2="1">
      <stop offset="0%" stop-color="#f0fdf4"/>
      <stop offset="100%" stop-color="#ecfdf5"/>
    </linearGradient>
    <linearGradient id="line" x1="0" x2="1" y1="0" y2="0">
      <stop offset="0%" stop-color="#cbd5e1"/>
      <stop offset="50%" stop-color="#94a3b8"/>
      <stop offset="100%" stop-color="#cbd5e1"/>
    </linearGradient>
  </defs>
  <rect width="1024" height="1024" fill="url(#bg)"/>
  <rect x="112" y="480" width="800" height="48" rx="24" fill="url(#line)"/>
  <rect x="112" y="480" width="320" height="48" rx="24" fill="#86efac" opacity=".7"/>
  <line x1="112" y1="504" x2="912" y2="504" stroke="#64748b" stroke-width="4"/>
  <circle cx="112" cy="504" r="16" fill="#475569"/>
  <circle cx="512" cy="504" r="16" fill="#475569"/>
  <circle cx="912" cy="504" r="16" fill="#475569"/>
  <text x="112" y="580" text-anchor="middle" fill="#334155" font-family="Arial,sans-serif" font-size="40" font-weight="800">0%</text>
  <text x="512" y="580" text-anchor="middle" fill="#334155" font-family="Arial,sans-serif" font-size="40" font-weight="800">50%</text>
  <text x="912" y="580" text-anchor="middle" fill="#334155" font-family="Arial,sans-serif" font-size="40" font-weight="800">100%</text>
  <line x1="432" y1="360" x2="432" y2="480" stroke="#64748b" stroke-width="6"/>
  <polygon points="432,340 412,400 452,400" fill="#2563eb"/>
  <rect x="408" y="400" width="48" height="36" rx="4" fill="#2563eb"/>
  <circle cx="432" cy="504" r="10" fill="#2563eb"/>
  <text x="432" y="300" text-anchor="middle" fill="#1d4ed8" font-family="Arial,sans-serif" font-size="44" font-weight="800">2/5</text>
  <text x="512" y="760" text-anchor="middle" fill="#059669" font-family="Arial,sans-serif" font-size="52" font-weight="800">>AB028 D;030</text>
  <text x="512" y="840" text-anchor="middle" fill="#047857" font-family="Arial,sans-serif" font-size="40" font-weight="700">= 40% = 0,4</text>
</svg>
